# xmcd CD database file
#
# Track frame offsets:
#	150
#	26345
#	33512
#	57942
#	77472
#	87475
#	114697
#
# Disc length: 1790 seconds
#
# Revision: 0
# Processed by: cddbd v1.5.1PL2 Copyright (c) Steve Scherf et al.
# Submitted via: CDex 1.60beta1
#
DISCID=4e06fc07
DTITLE=脱線3 - DAS BACK AGAIN
DYEAR=1998
DGENRE=Other
TTITLE0=Das The Mic 1997
TTITLE1=ホイ on the STEEL
TTITLE2=アディダフスキー
TTITLE3=11pm
TTITLE4=仲間意識自由型(f2=3D+WON)
TTITLE5=Dub The Mic '97
TTITLE6=11pm(INST)
EXTD=YEAR: 1998
EXTT0=
EXTT1=
EXTT2=
EXTT3=
EXTT4=
EXTT5=
EXTT6=
PLAYORDER=
